<svg xmlns="http://www.w3.org/2000/svg" aria-hidden="true" style="width:0;height:0;position:absolute;overflow:hidden"><defs><symbol id="icon-icon_heart" viewBox="0 0 34 32"><path fill="#ff6b08" style="fill:var(--color1,#ff6b08)" d="m17.231 31.705-2.412-2.412C5.859 21.367.001 16.025.001 9.478.001 4.136 4.136.001 9.478.001c2.929 0 5.858 1.378 7.754 3.618 1.895-2.24 4.825-3.618 7.754-3.618 5.342 0 9.477 4.135 9.477 9.477 0 6.548-5.858 11.889-14.818 19.815l-2.412 2.412z"/></symbol><symbol id="icon-close" viewBox="0 0 40 40"><path d="M23.733 10.304 22.229 8.8l-5.963 5.963L10.303 8.8l-1.504 1.504 5.963 5.963-5.963 5.963 1.504 1.504 5.963-5.963 5.963 5.963 1.504-1.504-5.963-5.963 5.963-5.963z"/></symbol><symbol id="icon-git" viewBox="0 0 32 32"><path d="M16 5.343c-6.196 0-11.219 5.023-11.219 11.219 0 4.957 3.214 9.162 7.673 10.645.561.103.766-.244.766-.54 0-.267-.01-1.152-.016-2.088-3.12.678-3.779-1.323-3.779-1.323-.511-1.296-1.246-1.641-1.246-1.641-1.02-.696.077-.682.077-.682 1.126.078 1.72 1.156 1.72 1.156 1.001 1.715 2.627 1.219 3.265.931.102-.723.392-1.219.712-1.498-2.49-.283-5.11-1.246-5.11-5.545 0-1.226.438-2.225 1.154-3.011-.114-.285-.501-1.426.111-2.97 0 0 .941-.301 3.085 1.15.894-.25 1.854-.373 2.807-.377.953.004 1.913.129 2.809.379 2.14-1.453 3.083-1.15 3.083-1.15.613 1.545.227 2.685.112 2.969.719.785 1.153 1.785 1.153 3.011 0 4.31-2.624 5.259-5.123 5.537.404.348.761 1.03.761 2.076 0 1.5-.015 2.709-.015 3.079 0 .299.204.648.772.538 4.455-1.486 7.666-5.69 7.666-10.645 0-6.195-5.023-11.219-11.219-11.219z"/></symbol><symbol id="icon-film-footer" viewBox="0 0 32 32"><path stroke="#fff" style="stroke:var(--color1,#fff)" stroke-linejoin="round" stroke-linecap="round" stroke-width="2.667" d="M26.427 2.667H5.574a2.907 2.907 0 0 0-2.907 2.907v20.853a2.907 2.907 0 0 0 2.907 2.907v0h20.853a2.907 2.907 0 0 0 2.907-2.907v0V5.574a2.907 2.907 0 0 0-2.907-2.907v0zm-17.094 0v26.667M22.667 2.667v26.667M2.667 16h26.667M2.667 9.333h6.667M2.667 22.667h6.667m13.333 0h6.667M22.667 9.333h6.667"/></symbol></defs></svg>